<svg version="1.1" id="レイヤー_1" xmlns="http://www.w3.org/2000/svg" xmlns:xlink="http://www.w3.org/1999/xlink" x="0px"
	 y="0px" viewBox="0 0 566.929 160.06" style="enable-background:new 0 0 566.929 160.06;" xml:space="preserve">
<style type="text/css">
	.st0{stroke:#E4007F; fill:#E4007F;}
</style>
<g>
	<path class="st0" d="M128.01,157.676c-4.182-7.273-11.887-11.756-20.311-11.756c-8.428,0-16.133,4.482-20.312,11.756H73.56
		c-4.184-7.272-11.889-11.756-20.311-11.756c-8.422,0-16.128,4.483-20.312,11.756H22.58c-11.677,0-21.177-9.5-21.177-21.177v-9.24
		c7.476-4.136,12.083-11.909,12.083-20.493c0-8.585-4.607-16.36-12.083-20.497V72.81c7.476-4.137,12.083-11.911,12.083-20.495
		S8.879,35.957,1.403,31.82v-9.239c0-11.678,9.5-21.178,21.177-21.178h10.391C37.161,8.64,44.854,13.1,53.25,13.1
		c8.395,0,16.088-4.46,20.279-11.697H87.42C91.608,8.64,99.302,13.1,107.699,13.1c8.396,0,16.089-4.46,20.277-11.697h9.143
		c10.79,0,20.991,9.823,20.991,20.212v10.517c-7.13,4.211-11.524,11.867-11.524,20.183s4.395,15.972,11.524,20.183v14.084
		c-7.13,4.213-11.524,11.87-11.524,20.185c0,8.312,4.395,15.969,11.524,20.182v10.517c0,10.39-10.201,20.212-20.991,20.212H128.01z
		 M44.116,91.135c-13.678,0-24.806,11.128-24.806,24.805s11.128,24.805,24.806,24.805c13.677,0,24.803-11.128,24.803-24.805
		S57.793,91.135,44.116,91.135z M45.131,44.753c20.654,0,40.276,8.922,53.834,24.479c14.782,16.964,20.295,39.971,14.748,61.544
		l-0.35,1.359l21.539,5.537l0.349-1.358c7.373-28.667,0.075-59.206-19.521-81.693C104.408,41.63,89.689,32.029,73.166,26.856
		c-9.137-2.86-18.628-4.311-28.208-4.311c-7.68,0-15.358,0.939-22.823,2.792l-1.362,0.338l5.359,21.584l1.362-0.339
		C33.287,45.483,39.22,44.753,45.131,44.753z M45.111,80.955c10.278,0,19.957,4.487,26.554,12.312
		c6.851,8.124,9.556,19.181,7.236,29.577l-0.306,1.369l21.705,4.845l0.306-1.369c3.822-17.133-0.641-35.36-11.94-48.76
		c-10.83-12.842-26.721-20.206-43.599-20.206c-4.83,0-9.637,0.62-14.289,1.844l-1.357,0.356l5.656,21.507l1.357-0.357
		C39.258,81.331,42.177,80.955,45.111,80.955z"/>
</g>
<g>
		<path class="st0" d="M258.495,
95.133c0.538-4.198,
0.728-8.325,
0.728-15.241V42.05c0.441-9.554,
0.796-15.528,
0.922-17.343l-2.762-0.431c-1.493,
6.093-3.706,
12.496-5.279,
16.458L234.736,
80.82c-2.029,
4.68-4.013,
10.456-4.938,
14.313H218.41
			c-0.718-3.485-2.353-8.259-4.972-14.528L196.743,41.5c-2.176-5.069-3.215-8.137-5.855-17.279l-3.8-13.159l1.054,13.656
			c0.466,6.045,0.922,15.295,0.922,17.789v37.386c0,7.02,0.191,11.278,0.712,15.241h-12.991c0.524-4.058,0.718-8.308,0.718-15.241
			V22.671c0-6.814-0.207-11.346-0.724-15.469h18.47c0.873,3.847,2.317,8.305,4.117,12.692l24.837,59.668l24.708-59.664
			c2.029-4.889,3.169-8.453,4.035-12.696h18.589c-0.573,4.891-0.746,8.669-0.746,15.469v57.221c0,7.379,0.177,11.441,0.7,15.241
			H258.495z"/>

		<path class="st0" d="M329.92,97.071c-25.41,0-41.829-18.108-41.829-46.133c0-14.394,4.536-26.663,12.773-34.549
			c7.757-7.512,16.95-11.009,28.94-11.009c12.502,0,21.876,3.494,29.5,10.995c8.221,8.081,12.564,20.032,12.564,34.562
			C371.869,78.962,355.403,97.071,329.92,97.071z M330.037,16.025c-17.402,0-28.646,13.749-28.646,35.026
			c0,11.772,3.486,21.684,9.816,27.907c5.021,4.815,11.568,7.354,18.945,7.354c17.451,0,28.293-13.555,28.293-35.375
			c0-11.868-3.312-21.397-9.575-27.557C343.855,18.564,337.347,16.025,330.037,16.025z"/>

		<path class="st0" d="M448.205,95.133c-1.954-3.73-4.046-7.013-7.106-11.579l-29.911-44.341c-2.506-3.893-5.354-8.838-7.799-13.544
			l-3.133-6.033l0.488,6.781c0.115,1.603,0.115,1.603,0.464,5.832c0.127,2.455,0.346,7.34,0.346,9.802v37.386
			c0,6.333,0.24,11.491,0.732,15.697h-13.717c0.478-3.954,0.72-9.261,0.72-15.81V20.505c0-5.523-0.198-9.319-0.715-13.303h15.513
			c1.252,2.96,3.513,6.524,6.867,11.469l29.32,43.425c2.521,3.722,6.275,9.645,8.978,14.49l3.324,5.958l-0.703-6.786
			c-0.458-4.421-0.803-11.269-0.803-15.928V21.529c0-6.234-0.209-10.547-0.707-14.326h13.68c-0.518,3.954-0.708,7.949-0.708,14.326
			v60.307c0,5.916,0.196,9.844,0.683,13.298H448.205z"/>

		<path class="st0" d="M522.472,97.071c-25.417,0-41.84-18.108-41.84-46.133c0-14.396,4.54-26.666,12.785-34.548
			c7.748-7.513,16.939-11.009,28.932-11.009c12.502,0,21.877,3.494,29.504,10.996c8.219,8.086,12.563,20.038,12.563,34.562
			C564.416,78.962,547.952,97.071,522.472,97.071z M522.584,16.025c-17.4,0-28.644,13.749-28.644,35.026
			c0,11.772,3.484,21.684,9.81,27.907c5.027,4.815,11.574,7.354,18.946,7.354c17.453,0,28.296-13.555,28.296-35.375
			c0-11.865-3.312-21.394-9.574-27.557C536.404,18.564,529.896,16.025,522.584,16.025z"/>
</g>
<g>
		<path class="st0" d="M220.641,157.534c-0.221-1.647-0.733-4.393-1.343-6.724l-5.82-26.034c-0.284-1.505-0.511-2.971-0.685-4.436
			l-0.66-5.554l-2.04,5.207c-0.783,2-1.428,3.457-1.902,4.503l-12.624,26.049c-1.611,3.282-2.598,5.391-3.13,6.988h-11.268
			c-0.062-1.291-0.139-1.859-0.801-6.705l-3.456-40.174c-0.236-3.876-0.414-6.043-0.798-8.073h10.87
			c-0.285,2.142-0.335,4.168-0.184,6.974l1.968,26.734c0.084,1.123,0.176,2.449,0.256,3.782l0.334,5.591l2.341-5.089
			c0.826-1.795,1.392-2.906,1.881-3.84l13.33-27.086c1.296-2.82,2.183-5.124,2.721-7.066h8.321c0.085,1.702,0.434,4.205,0.924,6.58
			l6.271,27.028c0.286,1.212,0.505,2.208,0.846,4.013l1.058,5.597l1.663-5.448c0.393-1.287,1.094-3.49,1.275-4.046l8.991-26.444
			c0.796-2.389,1.412-5.138,1.636-7.279h10.762c-0.935,2.204-1.613,4.151-2.726,7.782l-14.144,40.107
			c-0.317,0.896-0.604,1.668-0.835,2.286l-0.116,0.314c-0.189,0.509-0.334,0.899-0.427,1.182c-0.746,1.825-0.82,2.011-1.117,3.28
			H220.641z"/>

		<path class="st0" d="M259.932,157.534c0.371-2.496,0.499-4.759,0.499-8.62v-37.711c0-4.309-0.148-6.206-0.501-8.621h9.748
			c-0.373,2.503-0.495,4.694-0.495,8.621v37.711c0,3.87,0.127,6.133,0.495,8.62H259.932z"/>

		<path class="st0" d="M315.147,157.534c-0.259-1.79-1.394-5.214-3.621-10.945c-3.84-9.842-6.419-12.536-12-12.536h-10.841v14.719
			c0,3.99,0.122,6.216,0.494,8.763h-9.448c0.384-2.807,0.492-4.782,0.492-8.691v-37.777c0-3.49-0.118-5.599-0.497-8.672
			c2.655,0.125,4.804,0.188,8.469,0.188h16.783c10.356,0,16.296,5.159,16.296,14.156c0,4.379-1.16,7.795-3.45,10.153
			c-1.48,1.539-2.819,2.371-5.118,3.188l-2.779,0.986l2.519,1.534c2.725,1.66,4.83,5.878,10.193,18.572
			c0.562,1.28,2.006,4.404,2.988,6.362H315.147z M288.685,126.904h14.474c2.729,0,5.262-0.966,6.948-2.648
			c1.585-1.588,2.355-3.701,2.355-6.463c0-5.348-3.034-8.06-9.019-8.06h-14.759V126.904z"/>

		<path class="st0" d="M372.686,157.962c-2.474-0.318-4.731-0.429-8.604-0.429h-21.817c-3.819,0-5.72,0.057-8.396,0.19
			c0.369-2.635,0.496-4.943,0.496-8.811v-37.925c0-3.362-0.12-5.448-0.505-8.595c2.565,0.127,4.4,0.188,8.405,0.188h21.124
			c3.232,0,5.462-0.113,8.599-0.443v8.301c-2.616-0.321-4.865-0.432-8.599-0.432h-20.565v15.285h17.411
			c3.354,0,5.683-0.118,8.676-0.444v8.229c-2.647-0.366-4.519-0.428-8.676-0.428h-17.485v17.387h21.412
			c3.887,0,5.875-0.137,8.524-0.442V157.962z"/>

		<path class="st0" d="M420.459,157.963c-2.499-0.319-4.998-0.43-9.514-0.43h-20.697c-3.456,0-5.863,0.054-8.382,0.188
			c0.346-2.352,0.477-4.817,0.477-8.808V112.54c0-4.616-0.121-7.136-0.489-9.958h9.587c-0.379,2.768-0.497,5.188-0.497,9.881V149.9
			h20.002c4.657,0,6.894-0.144,9.514-0.442V157.963z"/>

		<path class="st0" d="M465.711,157.962c-2.469-0.318-4.723-0.429-8.591-0.429h-21.831c-3.81,0-5.709,0.057-8.387,0.19
			c0.366-2.591,0.492-4.902,0.492-8.811v-37.925c0-3.417-0.119-5.505-0.503-8.595c2.567,0.127,4.402,0.188,8.397,0.188h21.124
			c3.231,0,5.462-0.113,8.602-0.443v8.301c-2.616-0.321-4.866-0.432-8.602-0.432h-20.562v15.285h17.423
			c3.346,0,5.673-0.118,8.672-0.444v8.229c-2.646-0.366-4.518-0.428-8.672-0.428h-17.494v17.387h21.404
			c3.893,0,5.88-0.137,8.527-0.442V157.962z"/>

		<path class="st0" d="M494.749,158.657c-5.615,0-11.153-1.368-14.453-3.572c-2.685-1.816-4.703-4.44-5.994-7.796
			c-0.609-1.544-0.883-2.871-1.247-5.293l9.212-0.961c0.297,3.016,0.771,4.396,2.012,5.967c2.104,2.763,5.853,4.296,10.542,4.296
			c7.265,0,11.603-3.303,11.603-8.835c0-2.991-1.387-5.539-3.71-6.813c-2.074-1.11-2.42-1.19-11.285-3.247l-0.992-0.23
			c-5.216-1.182-7.937-2.279-10.407-4.197c-3.457-2.724-5.214-6.435-5.214-11.023c0-9.498,7.633-15.635,19.446-15.635
			c7.812,0,13.719,2.39,17.08,6.911c1.612,2.149,2.426,4.019,3.246,7.52l-9.147,1.085c-0.427-2.251-0.948-3.406-2.121-4.778
			c-1.895-2.265-5.115-3.518-9.058-3.518c-6.363,0-10.64,3.241-10.64,8.064c0,3.08,1.639,5.291,5.01,6.759
			c1.591,0.66,2.214,0.808,9.937,2.551c5.227,1.128,8.692,2.426,11.249,4.213c3.885,2.859,5.629,6.479,5.629,11.716
			c0,4.784-1.479,8.802-4.277,11.618C507.541,156.949,502.163,158.657,494.749,158.657z"/>

		<path class="st0" d="M544.832,158.657c-5.613,0-11.153-1.369-14.46-3.572c-2.681-1.82-4.7-4.445-5.99-7.796
			c-0.601-1.53-0.875-2.859-1.243-5.293l9.212-0.961c0.292,3.002,0.765,4.382,2.002,5.966c2.105,2.766,5.856,4.297,10.551,4.297
			c7.268,0,11.607-3.303,11.607-8.835c0-2.99-1.392-5.538-3.722-6.814c-2.062-1.104-2.403-1.185-11.155-3.219l-1.112-0.258
			c-5.218-1.182-7.937-2.278-10.397-4.195c-3.469-2.729-5.229-6.44-5.229-11.025c0-9.498,7.631-15.635,19.441-15.635
			c7.823,0,13.729,2.39,17.079,6.912c1.589,2.103,2.431,4.036,3.249,7.519l-9.143,1.086c-0.426-2.228-0.966-3.425-2.123-4.779
			c-1.895-2.265-5.117-3.518-9.062-3.518c-6.357,0-10.63,3.241-10.63,8.064c0,3.082,1.639,5.293,5.009,6.759
			c1.566,0.646,2.029,0.765,9.938,2.551c5.282,1.141,8.646,2.4,11.26,4.215c3.872,2.865,5.613,6.485,5.613,11.714
			c0,4.792-1.479,8.81-4.278,11.617C557.619,156.949,552.243,158.657,544.832,158.657z"/>
</g>
</svg>
