<?xml version="1.0" encoding="utf-8"?>
<!-- Generator: Adobe Illustrator 27.4.0, SVG Export Plug-In . SVG Version: 6.00 Build 0)  -->
<svg version="1.1" id="cue" xmlns="http://www.w3.org/2000/svg" xmlns:xlink="http://www.w3.org/1999/xlink" x="0px" y="0px"
	 viewBox="0 0 512 512" style="enable-background:new 0 0 512 512;" xml:space="preserve">
<style type="text/css">
	.st0{display:none;fill:#751B43;}
	.st1{fill:#FFFFFF;}
	.st2{display:none;}
	.st3{display:inline;}
	
		.st4{display:none;fill-rule:evenodd;clip-rule:evenodd;fill:none;stroke:#FFFFFF;stroke-width:10;stroke-linecap:round;stroke-miterlimit:10;}
	.st5{fill-rule:evenodd;clip-rule:evenodd;fill:none;stroke:#FFFFFF;stroke-width:16;stroke-linecap:round;stroke-miterlimit:10;}
	
		.st6{display:none;fill-rule:evenodd;clip-rule:evenodd;fill:none;stroke:#FFFFFF;stroke-width:9.8308;stroke-linecap:round;stroke-miterlimit:10;}
	.st7{display:none;fill-rule:evenodd;clip-rule:evenodd;fill:#FFFFFF;}
</style>
<rect x="-223" y="-79" class="st0" width="951" height="725"/>
<g>
	<path class="st1" d="M382.8,412H129.2c-16.2,0-29.2-13.1-29.2-29.2V129.2c0-16.2,13.1-29.2,29.2-29.2h253.5
		c16.2,0,29.2,13.1,29.2,29.2v253.5C412,398.9,398.9,412,382.8,412z"/>
</g>
<g class="st2">
	<g class="st3">
		<path class="st1" d="M58,194.1L4.5,247.7c-4.6,4.6-4.6,12.1,0,16.7L58,317.9V194.1z"/>
	</g>
	<g class="st3">
		<path class="st1" d="M317.9,58L264.3,4.5c-4.6-4.6-12.1-4.6-16.7,0L194.1,58H317.9z"/>
	</g>
	<g class="st3">
		<path class="st1" d="M194.1,454l53.5,53.5c4.6,4.6,12.1,4.6,16.7,0l53.5-53.5H194.1z"/>
	</g>
	<g class="st3">
		<path class="st1" d="M507.5,247.7L454,194.1v123.8l53.5-53.5C512.2,259.7,512.2,252.3,507.5,247.7z"/>
	</g>
</g>
<path class="st4" d="M128,58.9c37.4-22.4,81.2-35.2,128-35.2c45.6,0,88.4,12.2,125.2,33.6"/>
<path class="st4" d="M384,453.1c-37.4,22.4-81.2,35.2-128,35.2c-46.8,0-90.6-12.8-128-35.2"/>
<path class="st5" d="M454.2,135.7c21,35.2,33.1,76.3,33.1,120.3s-12.1,85.1-33.1,120.3"/>
<path class="st6" d="M158,73.8c29.2-15.7,62.5-24.6,98-24.6c35.5,0,68.8,8.9,98,24.6"/>
<path class="st6" d="M354,438.2c-29.2,15.7-62.5,24.6-98,24.6c-35.5,0-68.8-8.9-98-24.6"/>
<path class="st5" d="M439.7,180.8c12.1,22.4,18.9,48,18.9,75.2c0,27.2-6.8,52.8-18.9,75.2"/>
<path class="st5" d="M57.8,135.7C36.8,170.9,24.7,212,24.7,256s12.1,85.1,33.1,120.3"/>
<path class="st5" d="M72.3,180.8c-12.1,22.4-18.9,48-18.9,75.2c0,27.2,6.8,52.8,18.9,75.2"/>
<rect x="158" y="-37.1" class="st7" width="196" height="586.2"/>
<rect x="158" y="-37.1" transform="matrix(6.123234e-17 -1 1 6.123234e-17 0 512)" class="st7" width="196" height="586.2"/>
<g>
</g>
<g>
</g>
<g>
</g>
<g>
</g>
<g>
</g>
<g>
</g>
<g>
</g>
<g>
</g>
<g>
</g>
<g>
</g>
<g>
</g>
<g>
</g>
<g>
</g>
<g>
</g>
<g>
</g>
</svg>
